<svg width="277" height="23" viewBox="0 0 277 23" fill="none" xmlns="http://www.w3.org/2000/svg">
<path d="M0 22.5V0.5H1.09897V22.5H0ZM5.49484 22.5V0.5H6.59381V22.5H5.49484ZM7.69278 22.5V0.5H9.89071V22.5H7.69278Z" fill="#475569"/>
<path d="M12.8242 22.5V0.5H13.9231V22.5H12.8242ZM17.22 22.5V0.5H21.6159V22.5H17.22ZM22.7149 22.5V0.5H23.8138V22.5H22.7149Z" fill="#475569"/>
<path d="M25.6483 22.5V0.5H27.8462V22.5H25.6483ZM32.2421 22.5V0.5H33.3411V22.5H32.2421ZM34.4401 22.5V0.5H35.539V22.5H34.4401Z" fill="#475569"/>
<path d="M38.4725 22.5V0.5H39.5714V22.5H38.4725ZM40.6704 22.5V0.5H42.8683V22.5H40.6704ZM47.2642 22.5V0.5H48.3632V22.5H47.2642Z" fill="#475569"/>
<path d="M51.2966 22.5V0.5H52.3956V22.5H51.2966ZM53.4946 22.5V0.5H55.6925V22.5H53.4946ZM57.8904 22.5V0.5H58.9894V22.5H57.8904Z" fill="#475569"/>
<path d="M64.1208 22.5V0.5H65.2197V22.5H64.1208ZM67.4177 22.5V0.5H68.5166V22.5H67.4177ZM70.7146 22.5V0.5H75.1105V22.5H70.7146Z" fill="#475569"/>
<path d="M76.9449 22.5V0.5H78.0439V22.5H76.9449ZM79.1429 22.5V0.5H81.3408V22.5H79.1429ZM83.5387 22.5V0.5H84.6377V22.5H83.5387Z" fill="#475569"/>
<path d="M89.7691 22.5V0.5H91.967V22.5H89.7691ZM96.3629 22.5V0.5H97.4619V22.5H96.3629ZM98.5608 22.5V0.5H99.6598V22.5H98.5608Z" fill="#475569"/>
<path d="M102.593 22.5V0.5H103.692V22.5H102.593ZM108.088 22.5V0.5H109.187V22.5H108.088ZM110.286 22.5V0.5H112.484V22.5H110.286Z" fill="#475569"/>
<path d="M115.417 22.5V0.5H116.516V22.5H115.417ZM117.615 22.5V0.5H119.813V22.5H117.615ZM122.011 22.5V0.5H123.11V22.5H122.011Z" fill="#475569"/>
<path d="M128.242 22.5V0.5H130.439V22.5H128.242ZM131.538 22.5V0.5H133.736V22.5H131.538ZM135.934 22.5V0.5H138.132V22.5H135.934Z" fill="#475569"/>
<path d="M141.066 22.5V0.5H142.165V22.5H141.066ZM144.363 22.5V0.5H145.462V22.5H144.363ZM149.857 22.5V0.5H152.055V22.5H149.857Z" fill="#475569"/>
<path d="M153.89 22.5V0.5H154.989V22.5H153.89ZM157.187 22.5V0.5H158.286V22.5H157.187ZM159.385 22.5V0.5H161.583V22.5H159.385Z" fill="#475569"/>
<path d="M166.714 22.5V0.5H167.813V22.5H166.714ZM170.011 22.5V0.5H171.11V22.5H170.011ZM173.308 22.5V0.5H177.704V22.5H173.308Z" fill="#475569"/>
<path d="M179.538 22.5V0.5H181.736V22.5H179.538ZM182.835 22.5V0.5H185.033V22.5H182.835ZM187.231 22.5V0.5H189.429V22.5H187.231Z" fill="#475569"/>
<path d="M192.362 22.5V0.5H193.461V22.5H192.362ZM197.857 22.5V0.5H198.956V22.5H197.857ZM200.055 22.5V0.5H202.253V22.5H200.055Z" fill="#475569"/>
<path d="M205.186 22.5V0.5H206.285V22.5H205.186ZM209.582 22.5V0.5H213.978V22.5H209.582ZM215.077 22.5V0.5H216.176V22.5H215.077Z" fill="#475569"/>
<path d="M218.011 22.5V0.5H219.11V22.5H218.011ZM223.505 22.5V0.5H224.604V22.5H223.505ZM226.802 22.5V0.5H229V22.5H226.802Z" fill="#475569"/>
<path d="M230.835 22.5V0.5H231.934V22.5H230.835ZM233.033 22.5V0.5H235.231V22.5H233.033ZM237.429 22.5V0.5H238.528V22.5H237.429Z" fill="#475569"/>
<path d="M243.659 22.5V0.5H245.857V22.5H243.659ZM246.956 22.5V0.5H249.154V22.5H246.956ZM251.352 22.5V0.5H253.55V22.5H251.352Z" fill="#475569"/>
<path d="M256.483 22.5V0.5H257.582V22.5H256.483ZM259.78 22.5V0.5H261.978V22.5H259.78ZM266.374 22.5V0.5H267.473V22.5H266.374Z" fill="#475569"/>
<path d="M269.307 22.5V0.5H270.406V22.5H269.307ZM271.505 22.5V0.5H273.703V22.5H271.505ZM275.901 22.5V0.5H277V22.5H275.901Z" fill="#475569"/>
</svg>
