<svg width="93" height="93" viewBox="0 0 93 93" fill="none" xmlns="http://www.w3.org/2000/svg">
<circle cx="12.5" cy="12.4998" r="12" fill="#00996D"/>
<circle cx="80.5" cy="12.4998" r="12" fill="#00996D"/>
<path fill-rule="evenodd" clip-rule="evenodd" d="M88.9853 38.0145C93.6716 42.7008 93.6716 50.2987 88.9853 54.985C86.8417 57.1286 84.0889 58.2917 81.2843 58.4743C76.0912 58.8123 69.919 58.495 66.2391 62.1748L62.1751 66.2389C58.4952 69.9187 58.8125 76.0909 58.4745 81.284C58.2919 84.0887 57.1289 86.8415 54.9853 88.985C50.299 93.6713 42.701 93.6713 38.0147 88.985C33.3284 84.2987 33.3284 76.7008 38.0147 72.0145C40.1583 69.8709 42.9111 68.7078 45.7157 68.5253C50.9088 68.1872 57.081 68.5045 60.7609 64.8247L64.8249 60.7606C68.5048 57.0808 68.1875 50.9086 68.5255 45.7155C68.7081 42.9108 69.8711 40.1581 72.0147 38.0145C76.701 33.3282 84.299 33.3282 88.9853 38.0145Z" fill="#68D970"/>
<circle cx="80.5" cy="80.4998" r="12" fill="#00996D"/>
<path fill-rule="evenodd" clip-rule="evenodd" d="M54.9853 38.0145C59.6716 42.7008 59.6716 50.2987 54.9853 54.985C52.8417 57.1286 50.0889 58.2917 47.2843 58.4743C42.0912 58.8123 35.919 58.495 32.2391 62.1748L28.1751 66.2389C24.4952 69.9187 24.8125 76.0909 24.4745 81.284C24.2919 84.0887 23.1289 86.8415 20.9853 88.985C16.299 93.6713 8.70101 93.6713 4.01472 88.985C-0.671573 84.2987 -0.671573 76.7008 4.01472 72.0145C6.15829 69.8709 8.91108 68.7078 11.7157 68.5253C16.9088 68.1872 23.081 68.5045 26.7609 64.8247L30.8249 60.7606C34.5048 57.0808 34.1875 50.9086 34.5255 45.7155C34.7081 42.9108 35.8711 40.1581 38.0147 38.0145C42.701 33.3282 50.299 33.3282 54.9853 38.0145Z" fill="#00996D"/>
<path fill-rule="evenodd" clip-rule="evenodd" d="M54.9853 4.01447C59.6716 8.70077 59.6716 16.2987 54.9853 20.985C52.8417 23.1286 50.0889 24.2917 47.2843 24.4743C42.0912 24.8123 35.919 24.495 32.2391 28.1748L28.1751 32.2389C24.4952 35.9187 24.8125 42.0909 24.4745 47.284C24.2919 50.0887 23.1289 52.8415 20.9853 54.985C16.299 59.6713 8.70101 59.6713 4.01472 54.985C-0.671573 50.2987 -0.671573 42.7008 4.01472 38.0145C6.15829 35.8709 8.91108 34.7078 11.7157 34.5253C16.9088 34.1872 23.081 34.5045 26.7609 30.8247L30.8249 26.7606C34.5048 23.0808 34.1875 16.9086 34.5255 11.7155C34.7081 8.91083 35.8711 6.15805 38.0147 4.01447C42.701 -0.671817 50.299 -0.671817 54.9853 4.01447Z" fill="#68D970"/>
</svg>
